<svg xmlns="http://www.w3.org/2000/svg" width="38" height="38" viewBox="0 0 38 38" fill="none">
    <path d="M18.75 37.5C29.0813 37.5 37.5 29.0813 37.5 18.75C37.5 8.41875 29.0813 -7.3599e-07 18.75 -1.63918e-06C8.41875 -2.54236e-06 2.54236e-06 8.41875 1.63918e-06 18.75C7.3599e-07 29.0812 8.41875 37.5 18.75 37.5ZM13.5188 17.7562L20.1375 11.1375C20.4188 10.8562 20.775 10.725 21.1313 10.725C21.4875 10.725 21.8438 10.8562 22.125 11.1375C22.6688 11.6813 22.6688 12.5812 22.125 13.125L16.5 18.75L22.125 24.375C22.6688 24.9187 22.6688 25.8187 22.125 26.3625C21.5813 26.9062 20.6813 26.9062 20.1375 26.3625L13.5188 19.7437C12.9563 19.2 12.9563 18.3 13.5188 17.7562Z" fill="#121212"/>
</svg>