<svg width="45" height="45" viewBox="0 0 45 45" fill="none" xmlns="http://www.w3.org/2000/svg">
<g clip-path="url(#clip0_3053_8091)">
<path fill-rule="evenodd" clip-rule="evenodd" d="M22.5 0.53125L22.176 1.09375L19.0381 6.52165H21.375V25.8626L4.62465 35.5331L3.456 33.509L0 39.5026H0.64845L6.91875 39.5062L5.74965 37.4821L22.5 27.8116L39.2503 37.4821L38.0812 39.5062L45 39.5026L44.676 38.9401L41.544 33.509L40.3753 35.5336L23.625 25.8631V6.5212H25.9618L22.5 0.53125Z" fill="black"/>
<path fill-rule="evenodd" clip-rule="evenodd" d="M22.0762 12.8027L8.91554 21.4333C8.61224 21.6524 8.53079 21.9017 8.52539 22.1285V35.0255C8.52539 35.309 8.67299 35.5727 8.91554 35.7208L22.0762 44.3509C22.3935 44.5241 22.7161 44.4949 22.9303 44.3464L36.0847 35.7208C36.2039 35.648 36.3024 35.5459 36.3707 35.4241C36.439 35.3024 36.4749 35.1651 36.4749 35.0255V22.1285C36.4722 21.7847 36.3264 21.6034 36.0721 21.4247L22.924 12.8027C22.6108 12.6241 22.3651 12.7091 22.0762 12.8027ZM22.5001 14.4497L33.9819 22.0574L22.4929 29.8001L10.9036 22.1281L22.5001 14.4497ZM10.1521 23.5771L21.6865 31.2163V42.2075L10.153 34.5683L10.1521 23.5771ZM34.8481 23.5771V34.5679L23.3137 42.2071V31.2154L34.8481 23.5771Z" fill="black"/>
</g>
<defs>
<clipPath id="clip0_3053_8091">
<rect width="45" height="45" fill="white"/>
</clipPath>
</defs>
</svg>
