<svg width="40" height="25" viewBox="0 0 40 25" fill="none" xmlns="http://www.w3.org/2000/svg">
<path fill-rule="evenodd" clip-rule="evenodd" d="M5.49899 3.28599C5.68973 3.41166 5.8805 3.53728 6.07125 3.66294C7.77021 4.78294 8.63219 5.35053 8.65231 5.36411C8.54783 5.52896 8.39721 5.80236 8.25387 6.08579C6.99449 8.64098 5.72065 12.2133 5.58199 14.3514C5.67587 17.3213 6.88756 20.9215 9.28414 23.7704C9.54755 24.077 9.82929 24.3754 10.1298 24.662C9.72371 24.5887 9.31754 24.4875 8.91598 24.3602C5.1609 23.1 1.90337 20.0087 0.413049 15.5409C-0.650558 10.5639 0.489404 6.96329 2.13375 3.03404C2.35083 2.57627 2.58607 2.11465 2.91598 1.58775C2.92916 1.59527 3.79162 2.16196 5.49899 3.28599ZM36.9824 1.63072C37.309 2.15953 37.5415 2.62191 37.7558 3.08091C39.3764 7.02012 40.4941 10.628 39.4004 15.5985C37.883 20.0573 34.6064 23.1296 30.8437 24.367C30.4414 24.4919 30.0344 24.5902 29.6279 24.661C29.9303 24.3761 30.2141 24.0794 30.4795 23.7743C32.8933 20.94 34.1273 17.3471 34.2392 14.3778C34.1135 12.2389 32.861 8.65928 31.6172 6.09654C31.4755 5.81216 31.3261 5.53744 31.2226 5.37193C31.2374 5.362 32.1032 4.80064 33.8144 3.68736C34.0061 3.56276 34.198 3.43793 34.3896 3.31333C36.1036 2.1998 36.9692 1.63816 36.9824 1.63072ZM4.18746 0.075052C4.18746 0.075052 10.4702 -0.340021 13.5879 0.782083C17.5959 2.4287 19.9511 5.4481 19.9511 5.4481C19.9511 5.4481 22.4538 2.7162 25.4228 1.23521C28.9781 -0.538136 35.9932 0.29082 36.0019 0.291849L19.9511 10.7303L4.18746 0.075052Z" fill="#F6F6F6"/>
</svg>
